Coordinates
version=1
nRows=7
nColumns=40
inDegrees=yes

Units are S.I. units (second, meters, Newtons, ...)
Angles are in degrees.

endheader
time	pelvis_tilt	pelvis_list	pelvis_rotation	pelvis_tx	pelvis_ty	pelvis_tz	hip_flexion_r	hip_adduction_r	hip_rotation_r	knee_angle_r	knee_angle_r_beta	ankle_angle_r	subtalar_angle_r	mtp_angle_r	hip_flexion_l	hip_adduction_l	hip_rotation_l	knee_angle_l	knee_angle_l_beta	ankle_angle_l	subtalar_angle_l	mtp_angle_l	lumbar_extension	lumbar_bending	lumbar_rotation	arm_flex_r	arm_add_r	arm_rot_r	elbow_flex_r	pro_sup_r	wrist_flex_r	wrist_dev_r	arm_flex_l	arm_add_l	arm_rot_l	elbow_flex_l	pro_sup_l	wrist_flex_l	wrist_dev_l
     37.78142857	     -8.13162805	     -6.21883296	      3.03419889	      1.08898863	      0.92329847	      0.49516470	     14.79796396	      3.75066937	    -14.15940017	     16.47968159	     16.47968159	     11.80163783	     -1.08827208	     -2.80296316	     44.96093417	    -11.35556832	      7.30697681	     61.23223188	     61.23223188	     12.72305971	    -18.95190659	     17.30295678	    -12.55990426	      5.62234200	      4.68193334	     28.45318949	    -17.22521658	     -1.19111363	     57.23568445	     45.27157739	      0.00000000	      0.00000000	      3.10963733	     -9.22009794	     -4.64595091	     31.29919040	     47.30565282	      0.00000000	      0.00000000
     37.79285714	     -8.15605961	     -6.25479319	      3.27370063	      1.08750386	      0.92284815	      0.49442029	     14.26633934	      3.82576088	    -13.97756391	     16.28773348	     16.28773348	     12.05950866	     -1.53823976	     -3.17215769	     45.49238044	    -11.04738481	      7.67608197	     58.62156885	     58.62156885	     11.84204653	    -18.80588472	     15.88402434	    -12.61008860	      5.59024066	      5.30981488	     29.36325226	    -18.43001774	     -0.32745304	     62.35279591	     45.07960841	      0.00000000	      0.00000000	      2.83312298	     -9.03099850	     -4.81205068	     27.71228925	     47.26845096	      0.00000000	      0.00000000
     37.80428571	     -8.17472870	     -6.23429583	      3.51235922	      1.08612848	      0.92245328	      0.49347262	     13.72268183	      3.79652654	    -13.94007614	     16.12962101	     16.12962101	     12.44983957	     -1.69454698	     -3.26294420	     45.87124761	    -10.58124983	      8.12544630	     55.92932174	     55.92932174	     11.48534957	    -18.57481088	     15.94831737	    -12.61412106	      5.50431890	      4.91127057	     31.67418638	    -17.94197799	     -0.58924509	     64.79597769	     45.02031087	      0.00000000	      0.00000000	      1.17759176	     -9.22643709	     -4.80770907	     26.42461174	     47.22913092	      0.00000000	      0.00000000
     37.81571429	     -8.24607144	     -6.29328285	      3.73271331	      1.08492508	      0.92190037	      0.49244552	     13.23682124	      3.84208165	    -13.94862241	     15.98502844	     15.98502844	     12.80459465	     -1.82923304	     -3.34778046	     46.11845982	    -10.21585565	      8.55765627	     53.03955221	     53.03955221	     10.68822404	    -18.21996703	     14.23101800	    -12.62020065	      5.50162388	      5.12453667	     32.85921844	    -18.37012107	     -0.52723364	     69.70041871	     44.88022867	      0.00000000	      0.00000000	     -0.03589883	     -9.24521812	     -4.85735321	     24.82099042	     47.17323539	      0.00000000	      0.00000000
     37.82714286	     -8.32235941	     -6.31094989	      3.93510233	      1.08379730	      0.92140722	      0.49127118	     12.70172256	      3.84468821	    -13.92480690	     15.75703552	     15.75703552	     13.18912403	     -1.83952826	     -3.40203313	     46.25982153	     -9.78844668	      8.98168122	     50.16067219	     50.16067219	     10.46895697	    -17.61252121	     14.04865499	    -12.54451575	      5.46644129	      4.82061679	     35.02457919	    -17.85824972	     -0.72798602	     72.44781028	     44.81255645	      0.00000000	      0.00000000	     -1.59296812	     -9.33803346	     -4.81328376	     23.80127839	     47.12543470	      0.00000000	      0.00000000
     37.83857143	     -8.37028695	     -6.31063414	      4.09439990	      1.08292996	      0.92096172	      0.49002430	     12.09587885	      3.82817848	    -13.94134329	     15.49183007	     15.49183007	     13.56734519	     -1.76699387	     -3.43567138	     46.20818622	     -9.42597848	      9.26145283	     47.24288940	     47.24288940	     10.35570238	    -16.75796837	     13.74500239	    -12.51334272	      5.42134614	      4.56797051	     36.98782189	    -17.33215333	     -0.75691846	     75.59706274	     44.72468830	      0.00000000	      0.00000000	     -3.19388571	     -9.41098879	     -4.77723958	     22.98616799	     47.07855855	      0.00000000	      0.00000000
     37.85000000	     -8.44291240	     -6.35843414	      4.25646010	      1.08229980	      0.92044768	      0.48865805	     11.46386094	      3.85810177	    -14.02030834	     15.15468845	     15.15468845	     13.92855793	     -1.58773799	     -3.44314010	     46.08038256	     -9.14400024	      9.45181991	     44.36119644	     44.36119644	     10.27340731	    -15.69537308	     13.35521410	    -12.43750980	      5.43597814	      4.41050680	     38.77612183	    -16.91663064	     -0.72886915	     79.10290688	     44.62460976	      0.00000000	      0.00000000	     -4.78434721	     -9.41472720	     -4.73490810	     22.42420295	     47.02716888	      0.00000000	      0.00000000
